<?xml version="1.0" encoding="utf-8"?>
<!-- Generator: Adobe Illustrator 19.0.0, SVG Export Plug-In . SVG Version: 6.00 Build 0)  -->
<svg version="1.1" id="Capa_1" xmlns="http://www.w3.org/2000/svg" xmlns:xlink="http://www.w3.org/1999/xlink" x="0px" y="0px"
	 viewBox="0 0 131.3 34.2" style="enable-background:new 0 0 131.3 34.2;" xml:space="preserve">
<style type="text/css">
	.st0{fill:#D12A6E;}
</style>
<g id="XMLID_29_">
	<g id="XMLID_9_">
		<path id="XMLID_14_" class="st0" d="M86.1,28.6h-9.5c-3.6,0-6.6-3-6.6-6.6V11.8c0-3.6,3-6.6,6.6-6.6h9.5c3.6,0,6.6,3,6.6,6.6V22
			C92.7,25.6,89.7,28.6,86.1,28.6 M86.1,26.8c1.3,0,2.5-0.5,3.4-1.4c0.9-0.9,1.4-2.1,1.4-3.4V11.8c0-1.3-0.5-2.5-1.4-3.4
			C88.6,7.5,87.4,7,86.1,7h-9.5c-1.3,0-2.5,0.5-3.4,1.4c-0.9,0.9-1.4,2.1-1.4,3.4V22c0,1.3,0.5,2.5,1.4,3.4c0.9,0.9,2.1,1.4,3.4,1.4
			H86.1z"/>
		<path id="XMLID_11_" class="st0" d="M87.6,16.8c0,3.5-2.8,6.3-6.3,6.3c-3.5,0-6.3-2.8-6.3-6.3c0-3.5,2.8-6.3,6.3-6.3
			C84.8,10.5,87.6,13.3,87.6,16.8 M81.4,12.7c-2.3,0-4.1,1.8-4.1,4.1c0,2.3,1.8,4.1,4.1,4.1c2.3,0,4.1-1.8,4.1-4.1
			C85.5,14.5,83.6,12.7,81.4,12.7"/>
		<path id="XMLID_10_" class="st0" d="M89.2,10.4c0,0.8-0.7,1.5-1.5,1.5c-0.8,0-1.5-0.7-1.5-1.5c0-0.8,0.7-1.5,1.5-1.5
			C88.6,9,89.2,9.6,89.2,10.4"/>
	</g>
	<path id="XMLID_8_" class="st0" d="M24.6,5.4H9.5c-2.4,0-4.3,1.9-4.3,4.3v15.1c0,2.4,1.9,4.3,4.3,4.3h6.9v-9.8h-2V16h2v-2
		c0-2.8,1.1-4.4,4.4-4.4h2.7v3.4h-1.7c-1.3,0-1.4,0.5-1.4,1.4l0,1.7h3.1l-0.4,3.4h-2.7v9.8h4.1c2.4,0,4.3-1.9,4.3-4.3V9.8
		C29,7.4,27,5.4,24.6,5.4z"/>
	<path id="XMLID_5_" class="st0" d="M57.4,4.9H42.2c-2.4,0-4.3,1.9-4.3,4.3v15.1c0,2.4,1.9,4.3,4.3,4.3h15.1c2.4,0,4.3-1.9,4.3-4.3
		V9.3C61.7,6.9,59.8,4.9,57.4,4.9z M56.2,13.6c0,0.1,0,0.3,0,0.4c0,4.3-3.3,9.3-9.3,9.3c-1.9,0-3.6-0.5-5-1.5c0.3,0,0.5,0,0.8,0
		c1.5,0,3-0.5,4.1-1.4c-1.4,0-2.6-1-3.1-2.3c0.2,0,0.4,0.1,0.6,0.1c0.3,0,0.6,0,0.9-0.1c-1.5-0.3-2.6-1.6-2.6-3.2c0,0,0,0,0,0
		c0.4,0.2,0.9,0.4,1.5,0.4c-0.9-0.6-1.5-1.6-1.5-2.7c0-0.6,0.2-1.2,0.4-1.6c1.6,2,4,3.3,6.8,3.4c-0.1-0.2-0.1-0.5-0.1-0.7
		c0-1.8,1.5-3.3,3.3-3.3c0.9,0,1.8,0.4,2.4,1c0.7-0.1,1.4-0.4,2.1-0.8c-0.2,0.8-0.8,1.4-1.4,1.8c0.7-0.1,1.3-0.3,1.9-0.5
		C57.4,12.5,56.8,13.1,56.2,13.6z"/>
	<path id="XMLID_2_" class="st0" d="M121.9,5h-15.1c-2.4,0-4.3,1.9-4.3,4.3v15.1c0,2.4,1.9,4.3,4.3,4.3h15.1c2.4,0,4.3-1.9,4.3-4.3
		V9.3C126.2,6.9,124.2,5,121.9,5z M111.3,22.8V10.9l8.9,5.9L111.3,22.8z"/>
</g>
</svg>
